<svg width="738" height="276" viewBox="0 0 738 276" fill="none" xmlns="http://www.w3.org/2000/svg">
<path d="M221.269 251.111C227.527 251.111 232.599 246.039 232.599 239.781C232.599 233.524 227.527 228.451 221.269 228.451C215.012 228.451 209.939 233.524 209.939 239.781C209.939 246.039 215.012 251.111 221.269 251.111Z" fill="#EE5124"/>
<path d="M269.949 251.111C276.207 251.111 281.279 246.039 281.279 239.781C281.279 233.524 276.207 228.451 269.949 228.451C263.692 228.451 258.619 233.524 258.619 239.781C258.619 246.039 263.692 251.111 269.949 251.111Z" fill="#EE5124"/>
<path d="M195.999 131.31L193.359 131.09C177.929 129.8 164.849 132.19 154.489 138.18C151.732 139.767 149.145 141.634 146.769 143.75C143.798 146.395 141.189 149.421 139.009 152.75C137.397 155.204 136.033 157.814 134.939 160.54C134.158 162.344 133.62 164.244 133.339 166.19L125.609 229.19C125.585 229.384 125.602 229.581 125.66 229.768C125.718 229.954 125.815 230.127 125.945 230.274C126.074 230.42 126.233 230.537 126.412 230.618C126.59 230.698 126.784 230.74 126.979 230.74H147.179C147.516 230.74 147.841 230.617 148.093 230.394C148.346 230.171 148.508 229.864 148.549 229.53L154.719 180.41C155.274 175.588 157.122 171.006 160.069 167.15C163.207 163.05 167.235 159.716 171.849 157.4C176.569 154.988 181.799 153.743 187.099 153.77H191.369C191.699 153.771 192.018 153.653 192.267 153.438C192.517 153.223 192.681 152.926 192.729 152.6L195.999 131.31Z" fill="#231F20"/>
<path d="M420.37 134.43H397.1C396.904 134.43 396.711 134.389 396.532 134.308C396.354 134.228 396.195 134.111 396.065 133.964C395.936 133.818 395.839 133.645 395.781 133.458C395.723 133.271 395.706 133.074 395.73 132.88L400.1 97.7102C400.124 97.516 400.106 97.319 400.049 97.1321C399.991 96.9453 399.894 96.7728 399.764 96.6263C399.635 96.4797 399.476 96.3623 399.297 96.282C399.119 96.2016 398.925 96.1601 398.73 96.1602H378.26C377.921 96.1581 377.594 96.2817 377.34 96.507C377.087 96.7323 376.927 97.0434 376.89 97.3802L372.64 133.21C372.601 133.546 372.439 133.856 372.187 134.081C371.934 134.306 371.608 134.43 371.27 134.43H355.6C355.264 134.428 354.939 134.548 354.687 134.77C354.434 134.991 354.271 135.297 354.23 135.63L351.87 154.05C351.846 154.245 351.863 154.442 351.921 154.63C351.979 154.817 352.076 154.99 352.205 155.137C352.334 155.285 352.493 155.403 352.672 155.485C352.85 155.566 353.044 155.609 353.24 155.61H368.33C368.525 155.61 368.719 155.652 368.897 155.732C369.076 155.812 369.235 155.93 369.364 156.076C369.494 156.223 369.591 156.395 369.649 156.582C369.706 156.769 369.724 156.966 369.7 157.16L361 229.08C360.976 229.274 360.993 229.471 361.051 229.658C361.109 229.845 361.206 230.018 361.335 230.164C361.465 230.311 361.624 230.428 361.802 230.508C361.981 230.589 362.174 230.63 362.37 230.63H382.59C382.927 230.632 383.253 230.51 383.506 230.287C383.759 230.064 383.92 229.755 383.96 229.42L392.75 156.82C392.793 156.487 392.956 156.181 393.208 155.958C393.46 155.736 393.784 155.612 394.12 155.61H418C418.336 155.61 418.662 155.487 418.914 155.265C419.166 155.042 419.328 154.734 419.37 154.4L421.74 136C421.767 135.805 421.752 135.605 421.695 135.416C421.639 135.227 421.543 135.052 421.413 134.903C421.283 134.754 421.123 134.635 420.943 134.553C420.763 134.472 420.567 134.43 420.37 134.43Z" fill="#231F20"/>
<path d="M492.61 136.92C485.057 132.926 476.623 130.89 468.08 131C458.79 131 450.62 132.67 443.8 136C437.342 139.023 431.611 143.402 427 148.84C422.744 153.955 419.466 159.809 417.33 166.11C415.281 172.092 414.22 178.368 414.19 184.69C414.09 191.478 415.454 198.207 418.19 204.42C420.773 210.11 424.489 215.214 429.11 219.42C433.707 223.585 439.056 226.836 444.87 229C450.77 231.207 457.02 232.332 463.32 232.32C470.219 232.424 477.082 231.303 483.59 229.01C489.282 226.964 494.544 223.879 499.11 219.91C503.275 216.261 506.797 211.937 509.53 207.12C512.072 202.592 514.022 197.756 515.33 192.73C516.572 188.047 517.22 183.226 517.26 178.38C517.427 169.587 515.056 160.931 510.43 153.45C506.017 146.493 499.878 140.798 492.61 136.92ZM494.13 179.07C494.075 184.304 492.934 189.47 490.78 194.24C488.638 199.088 485.22 203.264 480.89 206.32C476.62 209.4 470.89 210.96 463.75 210.96C459.09 210.992 454.501 209.817 450.43 207.55C446.428 205.368 443.1 202.131 440.81 198.19C438.386 193.955 437.162 189.139 437.27 184.26C437.307 178.957 438.448 173.719 440.62 168.88C442.755 164.074 446.191 159.959 450.54 157C454.9 154 460.66 152.42 467.65 152.42C471.095 152.41 474.51 153.062 477.71 154.34C480.895 155.609 483.817 157.457 486.33 159.79C488.79 162.1 490.739 164.9 492.05 168.01C493.481 171.519 494.189 175.281 494.13 179.07Z" fill="#231F20"/>
<path d="M591.1 131.001C581.831 130.869 572.702 133.272 564.7 137.951C563.64 138.591 562.59 139.261 561.58 139.951L561.84 134.821C561.848 134.635 561.818 134.449 561.752 134.275C561.687 134.1 561.586 133.941 561.457 133.806C561.328 133.672 561.174 133.565 561.002 133.492C560.831 133.419 560.646 133.381 560.46 133.381H541.93C541.593 133.379 541.266 133.501 541.013 133.724C540.761 133.948 540.599 134.256 540.56 134.591L529 229.081C528.976 229.275 528.993 229.472 529.051 229.659C529.109 229.846 529.206 230.019 529.335 230.165C529.465 230.312 529.624 230.429 529.802 230.509C529.981 230.59 530.174 230.631 530.37 230.631H550.59C550.926 230.631 551.251 230.508 551.504 230.286C551.756 230.063 551.918 229.755 551.96 229.421L558.13 179.831C558.628 174.811 560.345 169.988 563.13 165.781C565.796 161.809 569.376 158.534 573.57 156.231C577.675 153.948 582.302 152.766 587 152.801C591.52 152.801 594.69 153.861 596.68 156.031C598.67 158.201 599.31 160.811 598.84 164.431L591 229.081C590.976 229.275 590.993 229.472 591.051 229.659C591.109 229.846 591.206 230.019 591.335 230.165C591.465 230.312 591.624 230.429 591.802 230.509C591.981 230.59 592.174 230.631 592.37 230.631H612.6C612.936 230.631 613.261 230.508 613.514 230.286C613.766 230.063 613.928 229.755 613.97 229.421L622.08 163.421C623.16 153.831 620.8 145.921 615.08 139.891C609.36 133.861 601.37 131.001 591.1 131.001Z" fill="#231F20"/>
<path d="M706.319 204.081C703.58 206.174 700.525 207.818 697.269 208.951C694.004 210.129 690.56 210.734 687.089 210.741C682.178 210.836 677.335 209.581 673.089 207.111C670.137 205.358 667.552 203.048 665.479 200.311C665.353 200.132 665.27 199.926 665.239 199.709C665.208 199.492 665.229 199.271 665.3 199.064C665.372 198.856 665.491 198.669 665.649 198.517C665.807 198.366 665.999 198.254 666.209 198.191L736.779 176.251C737.107 176.149 737.385 175.928 737.558 175.632C737.732 175.337 737.789 174.987 737.719 174.651L736.809 170.221C735.654 164.383 733.632 158.75 730.809 153.511C728.216 148.692 724.711 144.423 720.489 140.941C716.421 137.64 711.79 135.103 706.819 133.451C701.631 131.781 696.209 130.954 690.759 131.001C683.522 130.903 676.342 132.304 669.672 135.114C663.002 137.924 656.985 142.084 651.999 147.331C647.323 152.224 643.594 157.94 640.999 164.191C638.369 170.465 637.009 177.198 636.999 184.001C636.841 192.745 639.012 201.373 643.289 209.001C647.438 216.25 653.544 222.183 660.909 226.121C668.699 230.247 677.406 232.335 686.219 232.191C691.951 232.184 697.647 231.279 703.099 229.511C708.416 227.801 713.466 225.35 718.099 222.231L721.869 219.661C722.155 219.469 722.359 219.176 722.441 218.841C722.522 218.506 722.475 218.153 722.309 217.851L712.999 200.941C712.903 200.767 712.77 200.617 712.609 200.499C712.449 200.382 712.265 200.3 712.071 200.26C711.876 200.221 711.675 200.223 711.481 200.268C711.288 200.313 711.106 200.399 710.949 200.521L706.319 204.081ZM707.999 163.671L662.409 177.721C662.183 177.792 661.943 177.804 661.711 177.755C661.479 177.706 661.264 177.597 661.087 177.44C660.909 177.283 660.776 177.082 660.699 176.858C660.623 176.634 660.605 176.394 660.649 176.161C661.29 173.138 662.404 170.236 663.949 167.561C666.607 162.928 670.413 159.058 674.999 156.321C679.689 153.525 685.06 152.082 690.519 152.151C696.289 152.151 700.939 153.811 704.739 157.221C706.212 158.533 707.552 159.986 708.739 161.561C708.866 161.739 708.948 161.946 708.979 162.163C709.009 162.38 708.987 162.601 708.915 162.807C708.842 163.014 708.721 163.2 708.562 163.35C708.403 163.501 708.21 163.611 707.999 163.671Z" fill="#231F20"/>
<path d="M304.999 130.329C302.326 131.276 299.998 133.003 298.317 135.286C296.636 137.57 295.679 140.306 295.569 143.139L294.039 180.139C293.979 181.489 292.119 183.639 289.639 185.229L260.999 203.199C260.209 203.669 259.469 204.129 258.619 204.649C256.222 206.261 253.653 207.603 250.959 208.649C247.485 209.9 243.822 210.542 240.129 210.549C234.866 210.642 229.678 209.29 225.129 206.639C221.137 204.268 217.786 200.955 215.369 196.989L216.159 194.989L287.549 172.789C287.875 172.687 288.151 172.468 288.325 172.175C288.498 171.881 288.557 171.534 288.489 171.199L287.939 168.499C286.841 162.854 284.899 157.407 282.179 152.339C279.708 147.739 276.366 143.664 272.339 140.339C268.45 137.189 264.022 134.77 259.269 133.199C254.282 131.576 249.064 130.769 243.819 130.809C236.578 130.725 229.403 132.185 222.769 135.089C216.638 137.815 211.098 141.711 206.459 146.559C201.956 151.287 198.359 156.802 195.849 162.829C193.33 168.881 192.038 175.374 192.049 181.929C191.902 190.296 193.972 198.552 198.049 205.859C202.021 212.796 207.863 218.476 214.909 222.249C222.404 226.18 230.768 228.158 239.229 227.999C244.758 227.992 250.251 227.118 255.509 225.409C260.126 223.942 264.537 221.896 268.639 219.319L303.639 198.269C305.994 196.761 307.951 194.708 309.343 192.283C310.736 189.858 311.523 187.133 311.639 184.339L313.119 148.749C313.149 147.987 313.409 147.251 313.867 146.641C314.324 146.03 314.956 145.572 315.679 145.329L340.839 135.539C342.752 134.795 344.299 133.333 345.15 131.466C346.002 129.598 346.091 127.472 345.399 125.539C344.959 124.303 344.275 123.167 343.389 122.199C342.502 121.231 341.431 120.45 340.238 119.902C339.046 119.354 337.755 119.051 336.443 119.009C335.132 118.967 333.825 119.188 332.599 119.659L304.999 130.329Z" fill="#EE5124"/>
<path d="M108.42 150.651C104.527 144.008 98.9442 138.515 92.2395 134.731C85.8988 131.188 78.7992 129.223 71.5395 129.001C70.7495 128.941 69.9295 128.891 69.1395 128.891C56.1563 128.879 43.5454 133.228 33.3295 141.241C21.6847 149.959 13.7599 162.752 11.1395 177.061L0.709535 262.291L0.00953461 267.891C-0.0145634 268.085 0.00288632 268.282 0.0607265 268.469C0.118567 268.656 0.215476 268.828 0.345026 268.975C0.474577 269.121 0.633809 269.239 0.812163 269.319C0.990517 269.399 1.18392 269.441 1.37953 269.441H21.6395C21.9769 269.436 22.3009 269.308 22.5511 269.082C22.8014 268.855 22.9607 268.546 22.9995 268.211L27.8895 224.151C27.911 223.911 27.995 223.682 28.1331 223.485C28.2712 223.289 28.4585 223.132 28.6763 223.031C28.8941 222.93 29.1347 222.887 29.3739 222.908C29.6132 222.929 29.8427 223.013 30.0395 223.151C37.2914 227.878 45.7153 230.496 54.3695 230.711C57.9253 230.852 61.4863 230.637 64.9995 230.071L65.3795 230.011C72.811 229.064 79.9634 226.578 86.3795 222.711C94.8047 217.663 101.813 210.562 106.75 202.071C111.775 193.49 114.393 183.714 114.33 173.771C114.445 165.665 112.372 157.677 108.33 150.651H108.42ZM91.8895 177.291C90.8295 193.231 77.5395 207.291 61.6295 209.291C56.1765 210.059 50.6187 209.156 45.6895 206.701L45.3195 206.501C44.6595 206.131 44.0295 205.771 43.3195 205.301C43.055 205.149 42.8041 204.975 42.5695 204.781L42.3595 204.621C41.3879 203.954 40.4866 203.19 39.6695 202.341C39.2427 201.926 38.842 201.485 38.4695 201.021C33.8995 195.821 31.7495 188.751 32.4695 181.111C34.0095 163.911 49.4695 149.601 66.3695 149.601H66.8995C70.3498 149.61 73.7617 150.325 76.9258 151.7C80.0899 153.076 82.9394 155.084 85.2995 157.601C87.6812 160.261 89.4943 163.379 90.6275 166.765C91.7607 170.151 92.1902 173.733 91.8895 177.291Z" fill="#231F20"/>
<path d="M135.1 37.9413C132.19 37.9913 129.27 37.9413 126.32 37.9413H122.22C115.7 37.9413 109.22 37.9413 102.68 37.9413C102.472 37.8995 102.257 37.9026 102.051 37.9504C101.844 37.9981 101.65 38.0894 101.482 38.2181C101.313 38.3469 101.174 38.5101 101.074 38.6969C100.973 38.8837 100.914 39.0897 100.9 39.3013C100.15 42.3013 99.2896 45.3613 98.4696 48.3813C98.2496 49.1613 98.3796 49.4613 99.2996 49.4513C102.86 49.3913 106.41 49.4513 109.95 49.4513H118.62C117.4 54.0013 116.21 58.3513 115 62.7413C113.5 68.3813 112 74.0213 110.49 79.6413C109.89 81.8713 108.68 83.8913 105.26 83.7613C100.26 83.5713 95.1896 83.7613 90.1496 83.6913C89.9768 83.6568 89.7987 83.6595 89.627 83.6992C89.4554 83.7389 89.2942 83.8148 89.1541 83.9217C89.0141 84.0286 88.8984 84.1641 88.8149 84.3193C88.7314 84.4744 88.6818 84.6455 88.6696 84.8213C88.4629 86.0274 88.1069 87.2031 87.6096 88.3213C87.5296 87.7913 87.4996 87.6113 87.4896 87.4613C86.8896 81.6313 86.2796 75.8013 85.6396 70.0013C84.4996 59.7013 83.2996 49.4313 82.2096 39.1513C82.0996 38.1513 81.8196 37.9413 80.8996 37.9413C76.3096 37.9413 71.7196 37.9913 67.1296 37.9413C66.7 37.8955 66.2666 37.9809 65.8864 38.1862C65.5062 38.3915 65.1971 38.707 64.9996 39.0913C53.9329 56.2446 42.8629 73.3846 31.7896 90.5113C30.8396 91.9713 29.8996 93.4413 28.8496 95.0813H44.1396C44.8496 95.0813 45.0496 94.6113 45.3396 94.1613C47.0896 91.3713 48.8496 88.6013 50.5896 85.7913C50.6956 85.524 50.8807 85.2955 51.1202 85.1364C51.3597 84.9774 51.6422 84.8953 51.9296 84.9013C58.1429 84.9413 64.3563 84.9413 70.5696 84.9013C71.3896 84.9013 71.5696 85.2213 71.5696 85.9013C71.7996 88.5613 72.1396 91.2013 72.3196 93.9013C72.3796 94.8013 72.5496 95.1513 73.5596 95.1513C85.6996 95.1113 97.8329 95.1113 109.96 95.1513C112.938 95.1933 115.831 94.1601 118.11 92.2413C121.236 89.635 123.459 86.1068 124.46 82.1613C128.37 67.8913 132.16 53.5913 136.05 39.3013C136.39 38.1013 136.18 37.9213 135.1 37.9413ZM69.6496 74.3113C65.7696 74.2513 61.8696 74.3113 57.6496 74.3113L69.3096 55.1913C69.5096 58.0213 69.6996 60.4413 69.8696 62.8713C70.1296 66.3113 70.3596 69.7513 70.6196 73.1813C70.6696 73.9213 70.5996 74.3213 69.6496 74.3113Z" fill="#090B0A"/>
<path d="M181.999 63.8902L157.139 93.8902C154.139 83.7402 151.269 73.7902 148.309 63.6802C147.708 64.9056 147.29 66.2129 147.069 67.5602C144.729 76.2202 142.409 84.8802 140.179 93.5602C139.849 94.8202 139.289 95.1202 138.079 95.0902C134.129 95.0202 130.189 95.0902 126.239 95.0902C125.239 95.0902 125.019 94.9702 125.309 93.8802C130.223 75.6335 135.119 57.3702 139.999 39.0902C140.015 38.914 140.067 38.743 140.152 38.5878C140.236 38.4327 140.353 38.2968 140.493 38.1887C140.633 38.0807 140.793 38.0028 140.965 37.96C141.137 37.9173 141.315 37.9105 141.489 37.9402C145.883 37.9935 150.273 37.9935 154.659 37.9402C154.834 37.909 155.013 37.9139 155.186 37.9545C155.359 37.9952 155.521 38.0708 155.664 38.1766C155.806 38.2825 155.925 38.4164 156.014 38.5701C156.103 38.7237 156.159 38.8939 156.179 39.0702C158.769 48.6702 161.379 58.2702 164.009 67.9502C164.901 67.2664 165.66 66.426 166.249 65.4702C173.449 56.6035 180.633 47.7135 187.799 38.8002C187.986 38.5224 188.242 38.2979 188.542 38.1489C188.842 37.9999 189.175 37.9314 189.509 37.9502C193.109 38.0002 196.719 38.0402 200.309 37.9502C201.639 37.9502 201.819 38.3602 201.729 39.5502C200.619 55.8502 194.969 70.5502 185.729 83.8802C183.319 87.3702 180.729 90.6902 178.109 94.0402C177.019 95.4502 175.699 95.1202 174.389 95.0402C173.539 95.0402 174.189 94.3002 174.259 94.0402C175.349 89.8102 176.489 85.6002 177.619 81.3902C179.159 75.6169 180.706 69.8502 182.259 64.0902L181.999 63.8902Z" fill="#090B0A"/>
<path d="M181.39 3.39037C190.81 0.440371 200.33 -1.28963 210.13 1.18037C223.61 4.57037 229.97 15.2604 229.13 28.1804C228.46 38.0104 224.62 46.7404 219.57 55.0204C212.26 67.0004 202.77 77.0004 192.37 86.2704C189.09 89.1837 185.713 91.9804 182.24 94.6604C181.83 94.9704 181.49 95.5104 180.8 95.2004C189.8 86.5519 197.281 76.4509 202.93 65.3204C207.22 56.8304 210.38 47.9704 211.4 38.4604C212.06 32.2204 211.73 26.0404 209.27 20.1604C205.63 11.4704 198.74 6.83037 189.85 4.70037C187.054 4.11785 184.231 3.6806 181.39 3.39037Z" fill="#EE5124"/>
<path d="M236 11.29C235.82 11.12 235.42 10.93 235.64 10.72C235.86 10.51 236.07 10.87 236.23 11.06L236 11.29Z" fill="#EE5124"/>
<path d="M234.4 157.187L218.589 162.112C218.199 162.234 217.981 162.648 218.103 163.039L220.039 169.254C220.16 169.644 220.575 169.862 220.965 169.741L236.776 164.816C237.166 164.694 237.384 164.28 237.263 163.889L235.327 157.674C235.205 157.284 234.79 157.066 234.4 157.187Z" fill="white"/>
<path d="M252.736 151.484L236.925 156.409C236.535 156.53 236.317 156.945 236.439 157.335L238.375 163.551C238.496 163.941 238.911 164.159 239.301 164.037L255.112 159.113C255.502 158.991 255.72 158.576 255.599 158.186L253.663 151.971C253.541 151.581 253.126 151.363 252.736 151.484Z" fill="white"/>
<path d="M239.358 143.91L223.626 148.878C223.238 149 223.022 149.414 223.145 149.803L225.098 155.987C225.22 156.375 225.635 156.591 226.023 156.468L241.755 151.5C242.143 151.378 242.358 150.963 242.236 150.575L240.283 144.391C240.16 144.002 239.746 143.787 239.358 143.91Z" fill="white"/>
<path d="M234.4 157.187L218.589 162.112C218.199 162.234 217.981 162.648 218.103 163.039L220.039 169.254C220.16 169.644 220.575 169.862 220.965 169.741L236.776 164.816C237.166 164.694 237.384 164.28 237.263 163.889L235.327 157.674C235.205 157.284 234.79 157.066 234.4 157.187Z" fill="white"/>
<path d="M252.736 151.484L236.925 156.409C236.535 156.53 236.317 156.945 236.439 157.335L238.375 163.551C238.496 163.941 238.911 164.159 239.301 164.037L255.112 159.113C255.502 158.991 255.72 158.576 255.599 158.186L253.663 151.971C253.541 151.581 253.126 151.363 252.736 151.484Z" fill="white"/>
<path d="M228.673 169.141L212.862 174.065C212.472 174.187 212.254 174.601 212.375 174.992L214.311 181.207C214.433 181.597 214.848 181.815 215.238 181.694L231.049 176.769C231.439 176.648 231.657 176.233 231.535 175.843L229.599 169.627C229.478 169.237 229.063 169.019 228.673 169.141Z" fill="white"/>
<path d="M246.999 163.437L231.188 168.362C230.798 168.484 230.58 168.898 230.702 169.289L232.637 175.504C232.759 175.894 233.174 176.112 233.564 175.991L249.375 171.066C249.765 170.944 249.983 170.53 249.861 170.139L247.925 163.924C247.804 163.534 247.389 163.316 246.999 163.437Z" fill="white"/>
<path d="M265.332 157.725L249.521 162.649C249.131 162.771 248.913 163.185 249.035 163.576L250.97 169.791C251.092 170.181 251.507 170.399 251.897 170.278L267.708 165.353C268.098 165.232 268.316 164.817 268.194 164.427L266.258 158.211C266.137 157.821 265.722 157.603 265.332 157.725Z" fill="white"/>
<path d="M357.714 243.505V267.68H354.787V243.505H357.714ZM365.992 256.773V267.68H363.206V249.549H365.897V252.382H366.133C366.558 251.461 367.204 250.721 368.069 250.163C368.935 249.596 370.052 249.313 371.422 249.313C372.649 249.313 373.723 249.565 374.644 250.068C375.565 250.564 376.281 251.319 376.792 252.335C377.304 253.342 377.56 254.617 377.56 256.159V267.68H374.774V256.348C374.774 254.924 374.404 253.814 373.664 253.019C372.925 252.216 371.909 251.815 370.619 251.815C369.73 251.815 368.935 252.008 368.234 252.394C367.542 252.779 366.995 253.342 366.594 254.082C366.192 254.821 365.992 255.718 365.992 256.773ZM390.724 249.549V251.91H380.95V249.549H390.724ZM383.878 267.68V247.046C383.878 246.008 384.122 245.142 384.609 244.449C385.097 243.757 385.731 243.238 386.51 242.891C387.289 242.545 388.111 242.372 388.977 242.372C389.662 242.372 390.22 242.427 390.653 242.537C391.086 242.647 391.409 242.75 391.621 242.844L390.818 245.252C390.677 245.205 390.48 245.146 390.228 245.075C389.984 245.004 389.662 244.969 389.26 244.969C388.34 244.969 387.675 245.201 387.265 245.665C386.864 246.13 386.663 246.81 386.663 247.707V267.68H383.878ZM394.628 267.68V249.549H397.319V252.287H397.508C397.839 251.39 398.437 250.662 399.302 250.104C400.168 249.545 401.144 249.265 402.23 249.265C402.434 249.265 402.69 249.269 402.997 249.277C403.304 249.285 403.536 249.297 403.694 249.313V252.146C403.599 252.122 403.383 252.087 403.044 252.039C402.714 251.984 402.364 251.957 401.994 251.957C401.112 251.957 400.326 252.142 399.633 252.512C398.948 252.874 398.405 253.377 398.004 254.022C397.611 254.66 397.414 255.388 397.414 256.206V267.68H394.628ZM412.331 268.105C411.182 268.105 410.14 267.888 409.203 267.455C408.267 267.015 407.523 266.381 406.972 265.555C406.421 264.721 406.146 263.714 406.146 262.533C406.146 261.494 406.35 260.652 406.76 260.007C407.169 259.354 407.716 258.842 408.4 258.473C409.085 258.103 409.84 257.827 410.667 257.646C411.501 257.457 412.339 257.308 413.181 257.198C414.283 257.056 415.176 256.95 415.861 256.879C416.553 256.8 417.057 256.671 417.371 256.49C417.694 256.309 417.855 255.994 417.855 255.545V255.451C417.855 254.286 417.537 253.381 416.899 252.736C416.27 252.091 415.314 251.768 414.031 251.768C412.701 251.768 411.658 252.059 410.903 252.641C410.147 253.224 409.616 253.845 409.309 254.506L406.665 253.562C407.137 252.46 407.767 251.603 408.554 250.989C409.349 250.367 410.214 249.934 411.151 249.69C412.095 249.439 413.024 249.313 413.936 249.313C414.519 249.313 415.188 249.384 415.943 249.525C416.706 249.659 417.442 249.938 418.15 250.363C418.867 250.788 419.461 251.43 419.933 252.287C420.405 253.145 420.641 254.294 420.641 255.734V267.68H417.855V265.224H417.714C417.525 265.618 417.21 266.039 416.769 266.487C416.329 266.936 415.742 267.318 415.011 267.632C414.279 267.947 413.386 268.105 412.331 268.105ZM412.756 265.602C413.858 265.602 414.786 265.386 415.542 264.953C416.305 264.52 416.88 263.961 417.265 263.277C417.659 262.592 417.855 261.872 417.855 261.117V258.567C417.737 258.709 417.478 258.839 417.076 258.957C416.683 259.067 416.226 259.165 415.707 259.252C415.196 259.33 414.696 259.401 414.208 259.464C413.728 259.519 413.338 259.566 413.039 259.606C412.315 259.7 411.639 259.854 411.009 260.066C410.387 260.271 409.884 260.582 409.498 260.999C409.12 261.408 408.932 261.967 408.932 262.675C408.932 263.643 409.29 264.375 410.006 264.87C410.73 265.358 411.646 265.602 412.756 265.602ZM433.611 249.549V251.91H424.215V249.549H433.611ZM426.953 245.205H429.739V262.486C429.739 263.273 429.853 263.863 430.081 264.257C430.317 264.642 430.616 264.902 430.978 265.036C431.348 265.162 431.738 265.224 432.147 265.224C432.454 265.224 432.706 265.209 432.902 265.177C433.099 265.138 433.257 265.106 433.375 265.083L433.941 267.585C433.752 267.656 433.489 267.727 433.15 267.798C432.812 267.876 432.383 267.916 431.864 267.916C431.077 267.916 430.306 267.747 429.55 267.408C428.803 267.07 428.181 266.554 427.685 265.862C427.197 265.169 426.953 264.296 426.953 263.241V245.205ZM445.208 268.057C443.461 268.057 441.954 267.672 440.687 266.901C439.428 266.122 438.456 265.036 437.772 263.643C437.095 262.242 436.756 260.613 436.756 258.756C436.756 256.899 437.095 255.262 437.772 253.845C438.456 252.421 439.408 251.312 440.628 250.517C441.856 249.714 443.288 249.313 444.925 249.313C445.869 249.313 446.802 249.47 447.722 249.785C448.643 250.1 449.481 250.611 450.237 251.319C450.992 252.02 451.594 252.948 452.043 254.105C452.491 255.262 452.715 256.686 452.715 258.378V259.559H438.74V257.151H449.883C449.883 256.128 449.678 255.215 449.269 254.412C448.867 253.609 448.293 252.976 447.545 252.512C446.806 252.047 445.932 251.815 444.925 251.815C443.815 251.815 442.855 252.091 442.045 252.641C441.242 253.184 440.624 253.893 440.191 254.766C439.759 255.64 439.542 256.576 439.542 257.575V259.181C439.542 260.55 439.778 261.711 440.25 262.663C440.731 263.607 441.395 264.327 442.245 264.823C443.095 265.311 444.083 265.555 445.208 265.555C445.94 265.555 446.601 265.453 447.191 265.248C447.789 265.036 448.305 264.721 448.738 264.304C449.17 263.879 449.505 263.352 449.741 262.722L452.432 263.477C452.149 264.39 451.673 265.193 451.004 265.885C450.335 266.57 449.509 267.105 448.525 267.491C447.541 267.869 446.436 268.057 445.208 268.057ZM464.319 268.057C462.619 268.057 461.155 267.656 459.928 266.853C458.7 266.051 457.756 264.945 457.095 263.536C456.434 262.128 456.103 260.519 456.103 258.709C456.103 256.867 456.442 255.242 457.118 253.834C457.803 252.417 458.755 251.312 459.975 250.517C461.203 249.714 462.635 249.313 464.272 249.313C465.546 249.313 466.695 249.549 467.718 250.021C468.741 250.493 469.579 251.154 470.233 252.004C470.886 252.854 471.291 253.845 471.448 254.979H468.663C468.45 254.152 467.978 253.42 467.246 252.783C466.522 252.138 465.546 251.815 464.319 251.815C463.233 251.815 462.281 252.098 461.462 252.665C460.652 253.224 460.018 254.015 459.562 255.038C459.113 256.053 458.889 257.245 458.889 258.614C458.889 260.015 459.109 261.235 459.55 262.273C459.999 263.312 460.628 264.119 461.439 264.693C462.257 265.268 463.217 265.555 464.319 265.555C465.043 265.555 465.7 265.429 466.29 265.177C466.88 264.925 467.38 264.563 467.789 264.091C468.198 263.619 468.49 263.053 468.663 262.392H471.448C471.291 263.462 470.901 264.426 470.28 265.283C469.666 266.133 468.851 266.81 467.836 267.314C466.829 267.81 465.657 268.057 464.319 268.057ZM478.306 256.773V267.68H475.521V243.505H478.306V252.382H478.543C478.968 251.445 479.605 250.702 480.455 250.151C481.313 249.592 482.454 249.313 483.878 249.313C485.113 249.313 486.195 249.561 487.124 250.056C488.053 250.544 488.773 251.296 489.284 252.311C489.804 253.318 490.063 254.601 490.063 256.159V267.68H487.277V256.348C487.277 254.908 486.904 253.794 486.156 253.007C485.416 252.213 484.389 251.815 483.075 251.815C482.162 251.815 481.344 252.008 480.62 252.394C479.904 252.779 479.337 253.342 478.92 254.082C478.511 254.821 478.306 255.718 478.306 256.773ZM504.886 267.68V243.505H513.054C514.951 243.505 516.501 243.847 517.705 244.532C518.917 245.209 519.814 246.126 520.396 247.282C520.979 248.439 521.27 249.73 521.27 251.154C521.27 252.578 520.979 253.873 520.396 255.038C519.822 256.202 518.933 257.131 517.729 257.823C516.525 258.508 514.982 258.85 513.102 258.85H507.247V256.253H513.007C514.306 256.253 515.348 256.029 516.135 255.581C516.922 255.132 517.493 254.526 517.847 253.763C518.209 252.992 518.39 252.122 518.39 251.154C518.39 250.186 518.209 249.321 517.847 248.557C517.493 247.794 516.918 247.196 516.123 246.763C515.329 246.322 514.274 246.102 512.96 246.102H507.813V267.68H504.886ZM540.434 249.549L533.729 267.68H530.896L524.191 249.549H527.213L532.218 263.997H532.407L537.412 249.549H540.434ZM551.996 249.549V251.91H542.6V249.549H551.996ZM545.338 245.205H548.124V262.486C548.124 263.273 548.238 263.863 548.466 264.257C548.702 264.642 549.001 264.902 549.363 265.036C549.733 265.162 550.123 265.224 550.532 265.224C550.839 265.224 551.091 265.209 551.287 265.177C551.484 265.138 551.642 265.106 551.76 265.083L552.326 267.585C552.137 267.656 551.874 267.727 551.535 267.798C551.197 267.876 550.768 267.916 550.249 267.916C549.462 267.916 548.691 267.747 547.935 267.408C547.188 267.07 546.566 266.554 546.07 265.862C545.582 265.169 545.338 264.296 545.338 263.241V245.205ZM558.216 267.869C557.634 267.869 557.134 267.66 556.717 267.243C556.3 266.826 556.092 266.326 556.092 265.744C556.092 265.162 556.3 264.662 556.717 264.245C557.134 263.828 557.634 263.619 558.216 263.619C558.799 263.619 559.298 263.828 559.716 264.245C560.133 264.662 560.341 265.162 560.341 265.744C560.341 266.129 560.243 266.484 560.046 266.806C559.857 267.129 559.601 267.389 559.279 267.585C558.964 267.774 558.61 267.869 558.216 267.869ZM565.718 267.68V243.505H568.645V265.083H579.883V267.68H565.718ZM591.176 249.549V251.91H581.78V249.549H591.176ZM584.519 245.205H587.304V262.486C587.304 263.273 587.418 263.863 587.647 264.257C587.883 264.642 588.182 264.902 588.544 265.036C588.914 265.162 589.303 265.224 589.712 265.224C590.019 265.224 590.271 265.209 590.468 265.177C590.665 265.138 590.822 265.106 590.94 265.083L591.507 267.585C591.318 267.656 591.054 267.727 590.716 267.798C590.377 267.876 589.948 267.916 589.429 267.916C588.642 267.916 587.871 267.747 587.115 267.408C586.368 267.07 585.746 266.554 585.25 265.862C584.763 265.169 584.519 264.296 584.519 263.241V245.205ZM602.018 268.057C600.507 268.057 599.173 267.676 598.016 266.912C596.86 266.141 595.955 265.055 595.302 263.655C594.648 262.246 594.322 260.582 594.322 258.661C594.322 256.757 594.648 255.105 595.302 253.704C595.955 252.303 596.864 251.221 598.028 250.458C599.193 249.694 600.539 249.313 602.065 249.313C603.246 249.313 604.178 249.509 604.863 249.903C605.555 250.289 606.083 250.729 606.445 251.225C606.814 251.713 607.102 252.114 607.306 252.429H607.542V243.505H610.328V267.68H607.637V264.894H607.306C607.102 265.224 606.81 265.642 606.433 266.145C606.055 266.641 605.516 267.086 604.816 267.479C604.115 267.865 603.183 268.057 602.018 268.057ZM602.396 265.555C603.513 265.555 604.458 265.264 605.229 264.681C606 264.091 606.586 263.277 606.987 262.238C607.389 261.191 607.589 259.983 607.589 258.614C607.589 257.261 607.393 256.076 606.999 255.061C606.606 254.038 606.023 253.243 605.252 252.677C604.481 252.102 603.529 251.815 602.396 251.815C601.215 251.815 600.232 252.118 599.445 252.724C598.666 253.322 598.079 254.137 597.686 255.167C597.3 256.19 597.108 257.339 597.108 258.614C597.108 259.905 597.304 261.077 597.698 262.132C598.099 263.178 598.689 264.013 599.468 264.634C600.255 265.248 601.231 265.555 602.396 265.555ZM617.847 267.869C617.265 267.869 616.765 267.66 616.348 267.243C615.931 266.826 615.722 266.326 615.722 265.744C615.722 265.162 615.931 264.662 616.348 264.245C616.765 263.828 617.265 263.619 617.847 263.619C618.429 263.619 618.929 263.828 619.346 264.245C619.763 264.662 619.972 265.162 619.972 265.744C619.972 266.129 619.873 266.484 619.677 266.806C619.488 267.129 619.232 267.389 618.909 267.585C618.595 267.774 618.241 267.869 617.847 267.869Z" fill="#231F20"/>
</svg>
