<svg width="32" height="33" viewBox="0 0 32 33" fill="none" xmlns="http://www.w3.org/2000/svg">
<g clip-path="url(#clip0_1086_74627)">
<path d="M31.9759 1.37145C31.9127 1.17882 31.7368 1.04564 31.5343 1.0372C30.5147 0.994761 27.7279 1.00207 23.8822 1.98545C20.3025 2.90089 16.9433 4.40557 14.1675 6.33695C13.9472 6.49026 13.893 6.79307 14.0462 7.01339C14.1994 7.2337 14.5022 7.28801 14.7226 7.13476C17.4039 5.26895 20.6546 3.81401 24.1229 2.92707C25.4189 2.5957 26.7587 2.34414 28.029 2.18651C27.5082 2.41145 26.95 2.67464 26.369 2.98314C22.4401 5.06882 20.245 7.73576 19.032 9.87945C18.8726 9.1642 18.8289 8.34214 18.8286 7.97576C18.8285 7.70745 18.611 7.49001 18.3427 7.49001C18.0743 7.49001 17.8567 7.70757 17.8567 7.97595C17.8567 8.19101 17.8739 9.98326 18.4167 11.088C17.6686 12.6854 16.9689 14.2823 16.2918 15.8289C16.0042 16.4858 15.7211 17.1323 15.4404 17.7651C15.0026 16.9408 14.4256 15.4481 14.5839 13.4959C14.6055 13.2284 14.4063 12.9939 14.1387 12.9723C13.872 12.951 13.6368 13.1498 13.6151 13.4174C13.3877 16.2221 14.503 18.1804 14.9555 18.8482C14.1074 20.7225 13.271 22.4486 12.3902 23.9219C11.9367 22.8953 11.2263 20.9389 11.2263 18.7606C11.2263 18.4923 11.0087 18.2747 10.7404 18.2747C10.472 18.2747 10.2544 18.4923 10.2544 18.7606C10.2544 21.6501 11.372 24.1071 11.7742 24.8977C10.8119 26.3355 9.78436 27.4598 8.62367 28.144C5.08779 24.3039 4.74292 17.099 10.9201 10.4276C11.6223 9.66926 12.3929 8.94532 13.2107 8.27601C13.4184 8.10601 13.4489 7.79989 13.2789 7.5922C13.1089 7.38451 12.8027 7.35401 12.5951 7.52395C11.7429 8.22157 10.9394 8.97639 10.207 9.76732C3.69104 16.8046 4.05817 24.4748 7.79436 28.6767C4.54073 30.8663 0.514981 31.0031 0.472856 31.0043C0.204731 31.0115 -0.00683118 31.2346 0.000168815 31.5028C0.00710632 31.7668 0.223231 31.976 0.485731 31.976C0.490044 31.976 0.494419 31.9759 0.498731 31.9759C0.685231 31.9709 4.97954 31.8303 8.49723 29.3734C9.56311 30.2431 11.235 30.7722 13.2621 30.7722C15.557 30.7722 18.3072 30.0939 21.148 28.464C23.7798 26.954 25.6666 24.6441 26.7561 21.5984C27.6891 18.9903 28.0037 15.8523 27.666 12.5236C27.0639 6.58957 29.3056 3.91189 31.8177 1.90226C31.9759 1.77557 32.0389 1.56407 31.9759 1.37145ZM27.6832 5.34657C26.7273 7.34751 26.4054 9.72726 26.699 12.6216C27.0222 15.8073 26.7255 18.7983 25.8409 21.2709C24.8315 24.0929 23.0898 26.2293 20.6643 27.621C17.6035 29.3772 15.0344 29.7751 13.418 29.7998C11.7655 29.8256 10.3365 29.4728 9.37767 28.8197C10.1757 28.302 10.9084 27.6077 11.5969 26.7696C11.6348 26.7699 11.6757 26.7701 11.7214 26.7701C12.1986 26.7701 13.0877 26.7496 14.1367 26.627C16.2354 26.3818 17.8898 25.8639 19.0541 25.0877C19.2774 24.9389 19.3377 24.6371 19.1889 24.4139C19.04 24.1906 18.7383 24.1303 18.515 24.2791C16.7214 25.4749 13.8324 25.7346 12.3412 25.7858C13.2865 24.4376 14.1572 22.8188 15.0159 21.0257C15.8609 21.0236 18.104 20.8408 20.2367 19.1406C20.4465 18.9733 20.481 18.6676 20.3137 18.4578C20.1464 18.2479 19.8407 18.2134 19.6309 18.3807C18.0646 19.6294 16.407 19.9521 15.4841 20.0294C16.0444 18.8169 16.6045 17.5376 17.182 16.2187C17.48 15.5379 17.7827 14.8471 18.0915 14.1514C18.1248 14.1522 18.16 14.1528 18.197 14.1528C18.9295 14.1528 20.3882 13.9741 21.9912 12.7864C22.2068 12.6266 22.2521 12.3223 22.0923 12.1066C21.9325 11.891 21.6282 11.8458 21.4125 12.0055C20.4235 12.7383 19.5133 13.0135 18.9238 13.1154C18.7809 13.1402 18.6501 13.1559 18.5319 13.1659C18.8151 12.5374 19.1042 11.9068 19.401 11.2771C21.2114 7.43551 24.423 5.12082 26.7985 3.85551C27.8283 3.30701 28.7948 2.90239 29.5879 2.61326C28.8911 3.34751 28.2111 4.24157 27.6832 5.34657Z" fill="#EE5124"/>
</g>
<defs>
<clipPath id="clip0_1086_74627">
<rect width="32" height="32" fill="white" transform="translate(0 0.5)"/>
</clipPath>
</defs>
</svg>
