<svg width="34" height="36" viewBox="0 0 34 36" fill="none" xmlns="http://www.w3.org/2000/svg">
<path d="M33.5566 8.48713C33.5566 8.35036 33.5262 8.21359 33.4654 8.08442C33.3439 7.82609 33.1083 7.65133 32.85 7.59814L17.3726 0.0911777C17.1218 -0.0303926 16.8255 -0.0303926 16.5748 0.0911777L0.945385 7.66653C0.641459 7.81089 0.443907 8.11482 0.428711 8.45673V8.46433C0.428711 8.47193 0.428711 8.47953 0.428711 8.49472V27.5053C0.428711 27.8548 0.626263 28.1739 0.945385 28.3259L16.5748 35.9012C16.5824 35.9012 16.5824 35.9012 16.59 35.9088C16.6128 35.9164 16.6355 35.924 16.6583 35.9392C16.6659 35.9392 16.6735 35.9468 16.6887 35.9468C16.7115 35.9544 16.7343 35.962 16.7571 35.9696C16.7647 35.9696 16.7723 35.9772 16.7799 35.9772C16.8027 35.9848 16.8331 35.9848 16.8559 35.9924C16.8635 35.9924 16.8711 35.9924 16.8787 35.9924C16.9091 35.9924 16.9471 36 16.9775 36C17.0079 36 17.0458 36 17.0762 35.9924C17.0838 35.9924 17.0914 35.9924 17.099 35.9924C17.1218 35.9924 17.1522 35.9848 17.175 35.9772C17.1826 35.9772 17.1902 35.9696 17.1978 35.9696C17.2206 35.962 17.2434 35.9544 17.2662 35.9468C17.2738 35.9468 17.2814 35.9392 17.2966 35.9392C17.3194 35.9316 17.3422 35.924 17.365 35.9088C17.3726 35.9088 17.3726 35.9088 17.3802 35.9012L33.0551 28.3031C33.3667 28.1511 33.5718 27.832 33.5718 27.4825V8.50992C33.5566 8.50232 33.5566 8.49472 33.5566 8.48713ZM16.9699 1.92233L30.525 8.49472L25.533 10.9185L11.9779 4.34614L16.9699 1.92233ZM16.9699 15.0671L3.41478 8.49472L9.8884 5.35669L23.4435 11.9291L16.9699 15.0671ZM2.25227 9.96117L16.0581 16.6551V33.6218L2.25227 26.9278V9.96117ZM17.8816 33.6218V16.6551L24.3629 13.5095V17.9468C24.3629 18.4483 24.7732 18.8586 25.2746 18.8586C25.7761 18.8586 26.1864 18.4483 26.1864 17.9468V12.6205L31.7331 9.93077V26.8974L17.8816 33.6218Z" fill="#EE5124"/>
</svg>
