<svg width="30" height="36" viewBox="0 0 30 36" fill="none" xmlns="http://www.w3.org/2000/svg">
<rect width="30" height="36" fill="#8C8C8C"/>
<rect x="-712.5" y="-274.5" width="1359" height="781" rx="4.5" stroke="#9747FF" stroke-dasharray="10 5"/>
<g filter="url(#filter0_i_0_1)">
<rect width="1320" height="132" transform="translate(-693 -48)" fill="white"/>
<rect width="312" height="132" transform="translate(-21 -48)" fill="white"/>
<rect x="-21" y="-18" width="72" height="72" rx="36" fill="#EDF2EE"/>
<g clip-path="url(#clip0_0_1)">
<path d="M29.3824 31.201L27.3108 7.85427C27.2735 7.39226 26.886 7.04202 26.4166 7.04202H22.0498C22.0423 3.15959 18.8827 0 15.0003 0C11.1179 0 7.95826 3.15959 7.95081 7.04202H3.58401C3.12199 7.04202 2.7345 7.39226 2.68979 7.85427L0.618164 31.201C0.618164 31.2308 0.618164 31.2532 0.618164 31.283C0.618164 33.8837 3.01022 36 5.94625 36H24.0543C26.9903 36 29.3824 33.8837 29.3824 31.283C29.3824 31.2532 29.3824 31.2308 29.3824 31.201ZM15.0003 1.78845C17.8991 1.78845 20.2539 4.14324 20.2613 7.04202H9.73926C9.74671 4.14324 12.1015 1.78845 15.0003 1.78845ZM24.0543 34.2041H5.94625C4.00877 34.2041 2.42897 32.9149 2.40661 31.3128L4.40372 8.83047H7.95081V11.9677C7.95081 12.4595 8.35321 12.8619 8.84503 12.8619C9.33686 12.8619 9.73926 12.4595 9.73926 11.9677V8.83047H20.2613V11.9677C20.2613 12.4595 20.6637 12.8619 21.1555 12.8619C21.6474 12.8619 22.0498 12.4595 22.0498 11.9677V8.83047H25.5968L27.5939 31.3202C27.5716 32.9149 25.9918 34.2041 24.0543 34.2041Z" fill="#EE5124"/>
<path d="M18.7188 18.6145L13.4428 23.8904L11.2893 21.7369C10.939 21.3866 10.3727 21.3866 10.0224 21.7369C9.67221 22.0871 9.67221 22.6534 10.0224 23.0037L12.8094 25.7907C12.9808 25.9621 13.2118 26.0515 13.4428 26.0515C13.6739 26.0515 13.8974 25.9621 14.0763 25.7907L19.9856 19.8813C20.3358 19.5311 20.3358 18.9648 19.9856 18.6145C19.6353 18.2717 19.069 18.2717 18.7188 18.6145Z" fill="#EE5124"/>
</g>
</g>
<rect x="-5406" y="-14768" width="43092" height="22036" stroke="white" stroke-width="300" stroke-dasharray="1000 1000"/>
<defs>
<filter id="filter0_i_0_1" x="-693" y="-48" width="1320" height="132" filterUnits="userSpaceOnUse" color-interpolation-filters="sRGB">
<feFlood flood-opacity="0" result="BackgroundImageFix"/>
<feBlend mode="normal" in="SourceGraphic" in2="BackgroundImageFix" result="shape"/>
<feColorMatrix in="SourceAlpha" type="matrix" values="0 0 0 0 0 0 0 0 0 0 0 0 0 0 0 0 0 0 127 0" result="hardAlpha"/>
<feOffset dy="-0.5"/>
<feComposite in2="hardAlpha" operator="arithmetic" k2="-1" k3="1"/>
<feColorMatrix type="matrix" values="0 0 0 0 0.8 0 0 0 0 0.8 0 0 0 0 0.8 0 0 0 1 0"/>
<feBlend mode="normal" in2="shape" result="effect1_innerShadow_0_1"/>
</filter>
<clipPath id="clip0_0_1">
<rect width="36" height="36" fill="white" transform="translate(-3)"/>
</clipPath>
</defs>
</svg>
